<?xml version="1.0" encoding="iso-8859-1"?>
<!-- Generator: Adobe Illustrator 19.0.0, SVG Export Plug-In . SVG Version: 6.00 Build 0)  -->
<svg version="1.1" id="Layer_1" xmlns="http://www.w3.org/2000/svg" xmlns:xlink="http://www.w3.org/1999/xlink" x="0px" y="0px"
	 viewBox="0 0 512 512" style="enable-background:new 0 0 512 512;" xml:space="preserve">
<g>
	<g>
		<path d="M471.579,208.842c-14.958,0-28.009,8.133-34.999,20.211H304.474c-6.885-11.896-19.651-19.953-34.327-20.193
			l-33.373-60.072c3.649-6.074,5.752-13.184,5.752-20.787c0-22.322-18.098-40.421-40.421-40.421
			c-13.755,0-25.898,6.877-33.199,17.374l-91.919-7.66c-6.47-13.703-20.409-23.188-36.566-23.188C18.098,74.105,0,92.204,0,114.526
			c0,22.323,18.098,40.421,40.421,40.421c13.755,0,25.899-6.877,33.199-17.374l91.917,7.66c6.38,13.511,20.023,22.911,35.894,23.171
			l33.373,60.072c-3.649,6.074-5.752,13.184-5.752,20.787c0,19.549,13.879,35.856,32.321,39.607l18.282,54.846
			c-6.331,7.136-10.182,16.521-10.182,26.81c0,22.323,18.098,40.421,40.421,40.421c12.095,0,22.943-5.319,30.351-13.739
			l66.098,13.22c5.402,15.966,20.497,27.466,38.288,27.466c22.323,0,40.421-18.098,40.421-40.421c0-12.35-5.546-23.4-14.277-30.816
			l14.425-79.333c15.62-5.59,26.799-20.519,26.799-38.062C512,226.941,493.902,208.842,471.579,208.842z M431.01,359.411
			c-6.513,2.332-12.249,6.291-16.729,11.383l-66.098-13.222c-4.558-13.476-16.02-23.772-30.186-26.654l-18.282-54.846
			c1.799-2.028,3.394-4.239,4.76-6.599H436.58c2.33,4.026,5.332,7.611,8.855,10.605L431.01,359.411z"
			style="fill:#fff"/>
	</g>
</g>
<g>
	<g>
		<polygon points="144.591,218.527 123.241,214.4 112.717,195.368 102.194,214.4 80.842,218.527 95.689,234.418 93.014,256 
			112.717,246.788 132.418,256 129.746,234.418 		"
			style="fill: #fff"/>
	</g>
</g>
<g>
	<g>
		<polygon points="387.118,130.948 365.767,126.821 355.243,107.789 344.72,126.821 323.368,130.948 338.215,146.839 
			335.541,168.421 355.243,159.209 374.944,168.421 372.273,146.839 		"
			style="fill: #fff"/>
	</g>
</g>
<g>
	<g>
		<polygon points="198.486,346.527 177.136,342.4 166.612,323.368 156.089,342.4 134.737,346.527 149.583,362.418 146.909,384 
			166.612,374.788 186.313,384 183.641,362.418 		"
			style="fill: #fff"/>
	</g>
</g>
<g>
</g>
<g>
</g>
<g>
</g>
<g>
</g>
<g>
</g>
<g>
</g>
<g>
</g>
<g>
</g>
<g>
</g>
<g>
</g>
<g>
</g>
<g>
</g>
<g>
</g>
<g>
</g>
<g>
</g>
</svg>
