<?xml version="1.0" encoding="iso-8859-1"?>
<!-- Generator: Adobe Illustrator 19.0.0, SVG Export Plug-In . SVG Version: 6.00 Build 0)  -->
<svg version="1.1" id="Layer_1" xmlns="http://www.w3.org/2000/svg" xmlns:xlink="http://www.w3.org/1999/xlink" x="0px" y="0px"
	 viewBox="0 0 512.001 512.001" style="enable-background:new 0 0 512.001 512.001;" xml:space="preserve">
<g>
	<g>
		<path d="M427.948,71.224C382.02,25.294,320.953,0,256.001,0c-45.05,0-88.556,12.251-126.637,35.542
			c-9.479-6.708-21.035-10.666-33.506-10.666c-32.067,0-58.154,26.088-58.154,58.154c0,12.473,3.96,24.032,10.672,33.512
			c-23.283,38.083-35.545,81.625-35.545,126.631c0,43.56,11.659,86.301,33.715,123.602c19.302,32.647,46.089,60.395,77.895,80.902
			c-0.215,2.028-0.331,4.086-0.331,6.171c0,32.067,26.088,58.154,58.154,58.154c20.572,0,38.67-10.748,49.011-26.912
			c8.199,0.827,16.474,1.254,24.725,1.254c64.953,0,126.02-25.294,171.947-71.224c45.929-45.929,71.223-106.995,71.223-171.947
			S473.877,117.152,427.948,71.224z M256.001,452.951c-5.208,0-10.426-0.196-15.62-0.578c-0.787-31.387-26.544-56.681-58.116-56.681
			c-17.838,0-33.817,8.08-44.493,20.763c-25.372-17.351-46.793-40.137-62.484-66.677c-19.015-32.158-29.066-69.022-29.066-106.607
			c0-37.531,9.879-73.873,28.668-105.916c6.51,2.527,13.577,3.927,20.969,3.927c32.067,0,58.154-26.088,58.154-58.154
			c0-7.394-1.402-14.463-3.93-20.975c32.04-18.791,68.353-28.661,105.919-28.661c115.673,0,209.78,94.107,209.78,209.78
			S371.674,452.951,256.001,452.951z" style="fill: #fff"/>
	</g>
</g>
<g>
	<g>
		<path d="M256.001,197.16c-25.371,0-46.011,20.64-46.011,46.011c0,25.371,20.64,46.011,46.011,46.011s46.011-20.64,46.011-46.011
			S281.371,197.16,256.001,197.16z" style="fill: #fff"/>
	</g>
</g>
<g>
	<g>
		<path d="M420.206,204.6c-10.256-10.256-23.421-15.856-36.864-16.835c-6.959-15.468-16.613-29.433-28.811-41.631
			c-54.913-54.912-144.262-54.912-199.172,0c-54.912,54.912-54.912,144.26,0,199.172c27.457,27.455,63.52,41.184,99.586,41.184
			c36.066,0,72.132-13.727,99.587-41.184c12.199-12.199,21.852-26.164,28.811-41.631c13.442-0.978,26.608-6.579,36.864-16.835
			C442.879,264.168,442.879,227.273,420.206,204.6z M337.965,286.841c3.655,3.655,7.683,6.712,11.957,9.188
			c-4.97,9.388-11.321,17.984-19.002,25.666c-41.892,41.892-110.056,41.894-151.952,0c-41.893-41.893-41.893-110.058,0-151.951
			c41.892-41.892,110.055-41.893,151.952,0c7.681,7.681,14.032,16.277,19.002,25.666c-4.274,2.477-8.302,5.533-11.957,9.188
			c-10.985,10.985-17.034,25.588-17.034,41.121C320.931,261.254,326.98,275.858,337.965,286.841z" style="fill: #fff"/>
	</g>
</g>
<g>
</g>
<g>
</g>
<g>
</g>
<g>
</g>
<g>
</g>
<g>
</g>
<g>
</g>
<g>
</g>
<g>
</g>
<g>
</g>
<g>
</g>
<g>
</g>
<g>
</g>
<g>
</g>
<g>
</g>
</svg>
