<?xml version="1.0" encoding="iso-8859-1"?>
<!-- Generator: Adobe Illustrator 18.1.1, SVG Export Plug-In . SVG Version: 6.00 Build 0)  -->
<svg version="1.1" id="Capa_1" xmlns="http://www.w3.org/2000/svg" xmlns:xlink="http://www.w3.org/1999/xlink" x="0px" y="0px"
	 viewBox="0 0 290 290" style="enable-background:new 0 0 290 290;" xml:space="preserve">
<path color-rendering="auto" image-rendering="auto" shape-rendering="auto" color-interpolation="sRGB" d="M145,0
	c-26.492,0-51.325,7.138-72.707,19.57C66.808,13.692,59.006,10,50.375,10c-16.509,0-30,13.491-30,30
	c0,7.523,2.808,14.415,7.42,19.693C10.326,83.64,0,113.121,0,145c0,80.022,64.978,145,145,145c80.022,0,145-64.978,145-145
	C290,64.978,225.022,0,145,0L145,0z M145,10c74.618,0,135,60.382,135,135s-60.382,135-135,135c-74.618,0-135-60.382-135-135
	c0-29.51,9.457-56.782,25.492-78.984C39.885,68.544,44.966,70,50.375,70c16.509,0,30-13.491,30-30c0-4.31-0.925-8.411-2.578-12.123
	C97.582,16.509,120.521,10,145,10L145,10z M50.375,20c11.105,0,20,8.895,20,20s-8.895,20-20,20s-20-8.895-20-20S39.27,20,50.375,20z
	 M145,40C87.069,40,40,87.069,40,145c0,57.931,47.069,105,105,105c28.269,0,53.943-11.216,72.832-29.426
	c3.488,1.855,7.456,2.912,11.662,2.912c13.748,0,25-11.252,25-25c0-8.128-3.934-15.381-9.99-19.955
	C248.061,167.998,250,156.724,250,145C250,87.069,202.931,40,145,40z M145,50c52.526,0,95,42.474,95,95
	c0,10.195-1.605,20.01-4.568,29.211c-1.905-0.469-3.893-0.725-5.938-0.725c-13.748,0-25,11.252-25,25
	c0,5.945,2.108,11.421,5.607,15.725C193.107,230.202,170.217,240,145,240c-52.526,0-95-42.474-95-95C50,92.474,92.474,50,145,50z
	 M145,80c-35.839,0-65,29.161-65,65c0,5.032,0.595,9.923,1.688,14.627c-4.595,3.675-7.562,9.314-7.562,15.609
	c0,10.986,9.014,20,20,20c2.768,0,5.411-0.576,7.816-1.607C113.417,203.804,128.495,210,145,210c35.839,0,65-29.161,65-65
	S180.839,80,145,80z M145,90c30.435,0,55,24.565,55,55s-24.565,55-55,55c-13.344,0-25.548-4.734-35.059-12.604
	c2.61-3.38,4.184-7.593,4.184-12.16c0-10.987-9.014-20-20-20c-1.061,0-2.103,0.086-3.121,0.248C90.35,152.091,90,148.588,90,145
	C90,114.565,114.565,90,145,90z M138.481,115.775c-2.085,0.012-3.943,1.315-4.664,3.271l-2.83,7.69l-8.16,0.744
	c-2.75,0.251-4.777,2.683-4.526,5.434c0.052,0.569,0.201,1.124,0.44,1.642l3.438,7.439l-5.246,6.295
	c-1.767,2.122-1.48,5.275,0.643,7.043c0.439,0.365,0.937,0.653,1.473,0.85l7.689,2.83l0.744,8.16
	c0.252,2.75,2.685,4.776,5.436,4.524c0.568-0.052,1.123-0.201,1.641-0.44l7.438-3.435l6.297,5.244
	c2.122,1.767,5.275,1.48,7.043-0.643c0.365-0.439,0.653-0.937,0.85-1.473l2.83-7.69l8.16-0.742c2.75-0.252,4.776-2.685,4.524-5.435
	c-0.052-0.568-0.201-1.123-0.44-1.641l-3.436-7.44l5.244-6.295c1.767-2.122,1.48-5.275-0.643-7.042
	c-0.439-0.365-0.937-0.653-1.473-0.85l-7.689-2.83l-0.742-8.16c-0.251-2.75-2.684-4.777-5.434-4.526
	c-0.569,0.052-1.124,0.201-1.642,0.44l-7.439,3.438l-6.295-5.244C140.803,116.179,139.66,115.769,138.481,115.775L138.481,115.775z
	 M140.754,129.152l3.277,2.73c1.483,1.235,3.545,1.507,5.297,0.697l3.875-1.789l0.387,4.25c0.175,1.922,1.441,3.571,3.252,4.238
	l4.004,1.475l-2.73,3.277c-1.236,1.484-1.507,3.546-0.697,5.299l1.789,3.873l-4.248,0.387c-1.922,0.176-3.572,1.442-4.238,3.254
	l-1.475,4.004l-3.279-2.731c-1.483-1.236-3.544-1.508-5.297-0.699l-3.875,1.789l-0.387-4.248c-0.175-1.922-1.441-3.571-3.252-4.238
	l-4.006-1.475l2.732-3.279c1.235-1.483,1.507-3.545,0.697-5.297l-1.789-3.873l4.25-0.387c1.922-0.176,3.572-1.442,4.238-3.254
	L140.754,129.152z M94.125,165.236c5.582,0,10,4.418,10,10c0,5.582-4.418,10-10,10c-5.582,0-10-4.418-10-10
	C84.125,169.654,88.543,165.236,94.125,165.236z M229.494,183.486c8.344,0,15,6.656,15,15s-6.656,15-15,15s-15-6.656-15-15
	S221.151,183.486,229.494,183.486z"
	style="fill: #fff"/>
<g>
</g>
<g>
</g>
<g>
</g>
<g>
</g>
<g>
</g>
<g>
</g>
<g>
</g>
<g>
</g>
<g>
</g>
<g>
</g>
<g>
</g>
<g>
</g>
<g>
</g>
<g>
</g>
<g>
</g>
</svg>
