<?xml version="1.0" encoding="iso-8859-1"?>
<!-- Generator: Adobe Illustrator 19.0.0, SVG Export Plug-In . SVG Version: 6.00 Build 0)  -->
<svg version="1.1" id="Layer_1" xmlns="http://www.w3.org/2000/svg" xmlns:xlink="http://www.w3.org/1999/xlink" x="0px" y="0px"
	 viewBox="0 0 512 512" style="enable-background:new 0 0 512 512;" xml:space="preserve">
<path style="fill:#E2E7EC;" d="M458.073,313.638c-3.228,3.228-7.557,4.881-11.809,4.881c-4.251,0-8.58-1.652-11.808-4.881
	L198.282,77.465c-6.534-6.534-6.534-17.084,0-23.617C233,19.13,279.054,0.001,328.177,0c49.045,0.08,95.177,19.13,129.895,53.848
	l0.944,0.944c34.167,34.638,52.824,80.377,52.903,128.95C511.84,232.788,492.79,278.92,458.073,313.638z"/>
<path style="fill:#CCD5E0;" d="M434.455,313.638c3.228,3.228,7.557,4.88,11.808,4.881c4.252,0,8.582-1.653,11.809-4.881
	c34.718-34.718,53.768-80.85,53.848-129.895c-0.08-48.573-18.737-94.312-52.903-128.95l-0.944-0.944L316.368,195.552
	L434.455,313.638z"/>
<path style="fill:#6E6057;" d="M272.122,415.863c-22.299,0-43.272-8.682-59.048-24.458l0,0l-94.47-94.47
	c-32.552-32.557-32.552-85.527,0-118.084c6.262-6.262,17.352-6.262,23.615,0l188.94,188.94c6.523,6.517,6.523,17.092,0,23.615
	C315.394,407.176,294.421,415.863,272.122,415.863z"/>
<path style="fill:#615349;" d="M331.159,367.79l-93.515-93.515l-70.849,70.849l46.279,46.279
	c15.776,15.776,36.749,24.458,59.048,24.458s43.272-8.687,59.038-24.458C337.683,384.882,337.683,374.308,331.159,367.79z"/>
<path style="fill:#8083ff;" d="M414.774,462.145c-13.383,0-25.963-5.208-35.422-14.673l0,0l0,0L62.543,130.664
	c-9.47-9.459-14.678-22.038-14.678-35.422s5.208-25.963,14.678-35.427c22.082-22.076,51.437-34.237,82.651-34.237
	c31.226,0,60.581,12.161,82.662,34.243l222.34,222.334c45.577,45.577,45.577,119.743,0,165.319
	C440.737,456.937,428.158,462.145,414.774,462.145z"/>
<path style="fill:#8083fd;" d="M450.196,282.153L339.981,171.94L221.9,290.021l157.453,157.453
	c9.46,9.464,22.038,14.671,35.422,14.673c13.384,0,25.964-5.208,35.422-14.673C495.774,401.896,495.774,327.731,450.196,282.153z"/>
<circle style="fill:#F3D583;" cx="179.491" cy="141.593" r="16.7"/>
<circle style="fill:#EFC36C;" cx="368.423" cy="330.525" r="16.7"/>
<path style="fill:#A7E2E2;" d="M16.79,377.45c-5.252,0-10.415-2.468-13.666-7.089c-5.306-7.539-3.501-17.961,4.045-23.266
	l63.006-44.348c7.545-5.295,17.95-3.501,23.266,4.045c5.306,7.539,3.501,17.961-4.045,23.266l-63.006,44.348
	C23.467,376.46,20.118,377.45,16.79,377.45z"/>
<path style="fill:#8AC8C8;" d="M150.369,511.049c-3.327,0-6.676-0.984-9.6-3.044c-7.545-5.306-9.35-15.727-4.045-23.266
	l44.348-63.006c5.306-7.545,15.721-9.355,23.266-4.045c7.545,5.306,9.35,15.727,4.045,23.266l-44.348,63.006
	C160.784,508.581,155.62,511.049,150.369,511.049z"/>
<circle style="fill:#F3D583;" cx="274.915" cy="237.005" r="16.7"/>
<path style="fill:#EFC36C;" d="M286.718,248.819c6.522-6.522,6.521-17.096,0-23.617l-23.617,23.617
	C269.622,255.341,280.196,255.341,286.718,248.819z"/>
<path style="fill:#A7E2E2;" d="M5.925,507.109c-6.52-6.52-6.523-17.094,0-23.617l111.198-111.198c6.523-6.523,17.097-6.52,23.617,0
	c6.52,6.52,6.523,17.094,0,23.617L29.543,507.109C23.02,513.632,12.444,513.628,5.925,507.109z"/>
<path style="fill:#8AC8C8;" d="M29.543,507.109l111.198-111.198c6.523-6.523,6.52-17.097,0-23.617L5.925,507.109
	C12.444,513.628,23.02,513.632,29.543,507.109z"/>
<g>
</g>
<g>
</g>
<g>
</g>
<g>
</g>
<g>
</g>
<g>
</g>
<g>
</g>
<g>
</g>
<g>
</g>
<g>
</g>
<g>
</g>
<g>
</g>
<g>
</g>
<g>
</g>
<g>
</g>
</svg>
